<svg xmlns="http://www.w3.org/2000/svg" width="12" height="11" viewBox="0 0 12 11" fill="none">
  <path d="M8.887 2.153a.639.639 0 1 0 0 1.278.639.639 0 0 0 0-1.278m2.448 1.288a4 4 0 0 0-.245-1.293 2.6 2.6 0 0 0-.617-.942A2.5 2.5 0 0 0 9.53.594a3.9 3.9 0 0 0-1.293-.25C7.675.313 7.494.313 6.047.313s-1.628 0-2.192.031c-.442.01-.88.094-1.293.25a2.55 2.55 0 0 0-.942.612 2.5 2.5 0 0 0-.611.942c-.157.413-.241.85-.25 1.293-.032.564-.032.744-.032 2.192 0 1.447 0 1.627.031 2.191.01.442.094.88.25 1.293.13.356.34.678.612.942.265.271.586.48.942.612.413.156.85.24 1.293.25.564.032.745.032 2.192.032s1.628 0 2.191-.032c.442-.01.88-.094 1.293-.25a2.5 2.5 0 0 0 .942-.612 2.6 2.6 0 0 0 .617-.942c.152-.415.234-.851.245-1.293 0-.564.032-.744.032-2.191 0-1.448 0-1.628-.032-2.192m-.958 4.32a3 3 0 0 1-.18.989c-.086.232-.222.44-.4.612a1.7 1.7 0 0 1-.612.399 3 3 0 0 1-.99.18c-.531.027-.728.033-2.127.033-1.4 0-1.596 0-2.128-.032-.35.006-.7-.048-1.032-.16a1.7 1.7 0 0 1-.585-.399 1.6 1.6 0 0 1-.394-.612 3 3 0 0 1-.213-1.01c0-.532-.032-.73-.032-2.128 0-1.4 0-1.596.032-2.128.002-.346.066-.688.186-1.011.094-.225.238-.425.42-.586a1.7 1.7 0 0 1 .586-.425 3 3 0 0 1 1.01-.181c.533 0 .73-.032 2.129-.032s1.596 0 2.128.032c.337.004.672.065.99.18.24.09.458.236.632.427.175.163.31.363.4.585.117.324.179.666.18 1.01.027.533.032.73.032 2.129s-.005 1.596-.032 2.128m-4.33-4.858a2.729 2.729 0 1 0 .01 5.458 2.729 2.729 0 0 0-.01-5.458m0 4.501a1.772 1.772 0 1 1 0-3.543 1.772 1.772 0 0 1 0 3.543" fill="#fff"/>
</svg>
