<svg xmlns="http://www.w3.org/2000/svg" width="11" height="10" viewBox="0 0 11 10" fill="none">
<path d="M0.90625 1.89429C0.90625 1.58978 1.01409 1.33856 1.22976 1.14066C1.44543 0.942702 1.7258 0.84375 2.07091 0.84375C2.40984 0.84375 2.68404 0.941212 2.89354 1.13608C3.10921 1.33707 3.21705 1.59893 3.21705 1.92174C3.21705 2.21408 3.1123 2.45768 2.9028 2.65255C2.68712 2.85354 2.40367 2.95404 2.05239 2.95404H2.04319C1.70425 2.95404 1.43006 2.85354 1.2205 2.65255C1.011 2.45156 0.90625 2.19881 0.90625 1.89429ZM1.02643 9.88777V3.78534H3.07841V9.88777H1.02643ZM4.21535 9.88777H6.26733V6.48025C6.26733 6.26708 6.29202 6.10269 6.34128 5.98698C6.42757 5.77987 6.5585 5.60479 6.73411 5.46168C6.90972 5.31857 7.13003 5.24702 7.39502 5.24702C8.08518 5.24702 8.43029 5.70683 8.43029 6.62644V9.88777H10.4823V6.38891C10.4823 5.48754 10.2666 4.80391 9.83525 4.33804C9.4039 3.87211 8.83392 3.63915 8.12524 3.63915C7.33032 3.63915 6.71102 3.97718 6.26733 4.6532V4.67145H6.25808L6.26733 4.6532V3.78534H4.21535C4.22764 3.98022 4.23381 4.58622 4.23381 5.60325C4.23381 6.62033 4.22764 8.04848 4.21535 9.88777Z" fill="white"/>
</svg>